<svg width="24" height="24" viewBox="0 0 24 24" fill="none" xmlns="http://www.w3.org/2000/svg">
<path fill-rule="evenodd" clip-rule="evenodd" d="M17.6775 17.0438C15.8692 18.4358 13.25 17.1467 13.25 14.8647V12.75L3 12.75C2.58579 12.75 2.25 12.4142 2.25 12C2.25 11.5858 2.58579 11.25 3 11.25L13.25 11.25V9.13537C13.25 6.85332 15.8692 5.56422 17.6775 6.95626L21.3988 9.8209C22.8288 10.9217 22.8288 13.0783 21.3988 14.1791L17.6775 17.0438ZM14.75 9.13537C14.75 8.09808 15.9405 7.51212 16.7625 8.14487L20.4838 11.0095C21.1338 11.5099 21.1338 12.4901 20.4838 12.9905L16.7625 15.8552C15.9405 16.4879 14.75 15.902 14.75 14.8647L14.75 12L14.75 9.13537Z" fill="#2D264B"/>
</svg>
